<svg width="1010" height="128" viewBox="0 0 1010 128" fill="none" xmlns="http://www.w3.org/2000/svg">
<g clip-path="url(#clip0_5123_519)">
<path d="M63.9999 79.12C72.3504 79.12 79.1199 72.3505 79.1199 64C79.1199 55.6495 72.3504 48.88 63.9999 48.88C55.6493 48.88 48.8799 55.6495 48.8799 64C48.8799 72.3505 55.6493 79.12 63.9999 79.12Z" fill="#0030B6"/>
<path d="M125.36 88.44L132.16 79.12H205.32C206.48 74.28 207.12 69.2 207.12 64C207.12 28.64 178.48 0 143.12 0C128.2 0 114.44 5.12 103.56 13.72C92.68 5.16 78.96 0 64 0C28.64 0 0 28.64 0 64C0 69.2 0.64 74.28 1.8 79.12H44.76C41.48 74.96 39.52 69.72 39.52 64C39.52 50.48 50.48 39.56 63.96 39.56H160.84L154.04 48.92H83.16C86.44 53.08 88.4 58.32 88.4 64.04C88.4 77.56 77.44 88.48 63.96 88.48C63.92 88.48 63.88 88.48 63.84 88.48H4.84C14.44 111.68 37.32 128.04 64 128.04C78.92 128.04 92.68 122.92 103.56 114.32C114.44 122.88 128.16 128.04 143.12 128.04C169.8 128.04 192.68 111.72 202.28 88.48H125.36V88.44Z" fill="#0030B6"/>
<path d="M257.6 42.6C263.08 42.6 268.52 44.48 272.44 50.08V43.52H280.4V84.52H272.44V77.96C268.52 83.52 263.08 85.44 257.6 85.44C245.28 85.44 237.28 75.76 237.28 64.04C237.28 52.32 245.32 42.64 257.6 42.64V42.6ZM258.6 49.64C250.08 49.64 245.24 56.2 245.24 64C245.24 71.8 250.08 78.36 258.6 78.36C267.12 78.36 272.56 72.28 272.64 64C272.56 55.72 266.92 49.64 258.6 49.64Z" fill="#0030B6"/>
<path d="M303.12 52.76C304.52 46.28 309.04 42.6 314.12 42.6C315.6 42.6 316.76 43 317.88 43.52V51.32C316.56 50.6 315 50.24 313.52 50.24C310.8 50.24 303.12 51.56 303.12 69V84.48H295.16V43.48H303.12V52.76Z" fill="#0030B6"/>
<path d="M342.64 42.6C348.12 42.6 353.56 44.48 357.48 50.08V43.52H365.44V84.52H357.48V77.96C353.56 83.52 348.12 85.44 342.64 85.44C330.36 85.44 322.32 75.76 322.32 64.04C322.32 52.32 330.36 42.64 342.64 42.64V42.6ZM343.64 49.64C335.12 49.64 330.28 56.2 330.28 64C330.28 71.8 335.12 78.36 343.64 78.36C352.16 78.36 357.56 72.28 357.68 64C357.6 55.72 351.92 49.64 343.64 49.64Z" fill="#0030B6"/>
<path d="M398.88 42.6C402.56 42.6 408.08 43.52 413.56 47.6L409.8 53C405.44 49.72 400.28 49.64 399.24 49.64C390.4 49.64 383.84 55.56 383.84 64C383.84 72.44 390.4 78.36 399.24 78.36C400.32 78.36 405.48 78.28 409.8 75L413.56 80.4C408.08 84.52 402.56 85.4 398.88 85.4C384.36 85.4 375.84 76.12 375.84 64.48C375.84 52.84 383.96 42.6 398.88 42.6Z" fill="#0030B6"/>
<path d="M440.72 42.6C452.6 42.6 462.28 52.28 462.28 64C462.28 75.72 452.6 85.4 440.72 85.4C428.84 85.4 419.24 75.88 419.24 64C419.24 52.12 428.92 42.6 440.72 42.6ZM440.72 78.32C448.28 78.32 454.32 71.92 454.32 64.04C454.32 56.16 448.24 49.6 440.72 49.6C433.2 49.6 427.2 56.08 427.2 64.04C427.2 72 433.28 78.32 440.72 78.32Z" fill="#0030B6"/>
<path d="M479.92 52.76C481.32 46.28 485.84 42.6 490.92 42.6C492.4 42.6 493.56 43 494.68 43.52V51.32C493.36 50.6 491.8 50.24 490.32 50.24C487.6 50.24 479.92 51.56 479.92 69V84.48H471.96V43.48H479.92V52.76Z" fill="#0030B6"/>
<path d="M540.08 77.76C534.84 83.68 528.2 85.4 522.12 85.4C507.84 85.4 499 75.8 499 64.16C499 52.52 508.36 42.6 521.04 42.6C531.88 42.6 541.96 49.56 541.96 64.76H506.96C506.72 72.72 513.12 78.36 522.2 78.36C527.12 78.36 531.56 76.72 535.64 73.2L540.08 77.8V77.76ZM507.72 58.56H533.8C531.6 51.08 525.76 49.52 521.24 49.52C516.4 49.52 510.4 51.4 507.72 58.56Z" fill="#0030B6"/>
</g>
<line x1="592.5" y1="40" x2="592.5" y2="88" stroke="#041460"/>
<path d="M650.752 56.512C649.003 56.512 647.477 56.1813 646.176 55.52C644.875 54.8587 643.84 53.952 643.072 52.8C642.325 51.6267 641.888 50.272 641.76 48.736L644.64 48.544C644.789 49.6747 645.12 50.6347 645.632 51.424C646.144 52.2133 646.827 52.8107 647.68 53.216C648.555 53.6213 649.6 53.824 650.816 53.824C651.883 53.824 652.789 53.6853 653.536 53.408C654.283 53.1307 654.848 52.7253 655.232 52.192C655.637 51.6587 655.84 51.008 655.84 50.24C655.84 49.536 655.669 48.9173 655.328 48.384C655.008 47.8293 654.379 47.328 653.44 46.88C652.523 46.4107 651.157 45.952 649.344 45.504C647.595 45.056 646.197 44.5653 645.152 44.032C644.128 43.4987 643.381 42.848 642.912 42.08C642.464 41.312 642.24 40.3627 642.24 39.232C642.24 37.952 642.539 36.832 643.136 35.872C643.755 34.8907 644.629 34.1333 645.76 33.6C646.891 33.0453 648.235 32.768 649.792 32.768C651.456 32.768 652.885 33.088 654.08 33.728C655.275 34.3467 656.224 35.2 656.928 36.288C657.632 37.376 658.069 38.6133 658.24 40L655.36 40.192C655.232 39.2747 654.933 38.464 654.464 37.76C654.016 37.0347 653.397 36.4693 652.608 36.064C651.819 35.6587 650.859 35.456 649.728 35.456C648.32 35.456 647.2 35.7973 646.368 36.48C645.536 37.1413 645.12 38.016 645.12 39.104C645.12 39.808 645.28 40.3947 645.6 40.864C645.941 41.312 646.539 41.7173 647.392 42.08C648.245 42.4213 649.472 42.7947 651.072 43.2C652.971 43.6693 654.475 44.2347 655.584 44.896C656.715 45.536 657.515 46.2827 657.984 47.136C658.475 47.9893 658.72 48.96 658.72 50.048C658.72 51.3707 658.379 52.5227 657.696 53.504C657.013 54.464 656.075 55.2107 654.88 55.744C653.685 56.256 652.309 56.512 650.752 56.512ZM670.09 56.384C668.49 56.384 667.104 56.0213 665.93 55.296C664.778 54.5707 663.882 53.5467 663.242 52.224C662.624 50.88 662.314 49.312 662.314 47.52C662.314 45.728 662.624 44.1707 663.242 42.848C663.882 41.5253 664.768 40.5013 665.898 39.776C667.05 39.0293 668.405 38.656 669.962 38.656C671.434 38.656 672.736 39.008 673.866 39.712C674.997 40.3947 675.872 41.3973 676.49 42.72C677.13 44.0427 677.45 45.6533 677.45 47.552V48.352H665.13C665.237 50.1653 665.717 51.5307 666.57 52.448C667.445 53.3653 668.618 53.824 670.09 53.824C671.2 53.824 672.106 53.568 672.81 53.056C673.536 52.5227 674.037 51.8293 674.314 50.976L677.194 51.2C676.746 52.7147 675.893 53.9627 674.634 54.944C673.397 55.904 671.882 56.384 670.09 56.384ZM665.13 45.984H674.506C674.378 44.3413 673.898 43.136 673.066 42.368C672.256 41.6 671.221 41.216 669.962 41.216C668.661 41.216 667.584 41.6213 666.73 42.432C665.898 43.2213 665.365 44.4053 665.13 45.984ZM686.643 56C685.107 56 683.966 55.648 683.219 54.944C682.494 54.24 682.131 53.1413 682.131 51.648V35.072H684.819V51.584C684.819 52.352 684.99 52.8853 685.331 53.184C685.672 53.4827 686.195 53.632 686.899 53.632H689.331V56H686.643ZM679.635 41.408V39.04H689.331V41.408H679.635ZM696.275 56C694.739 56 693.598 55.648 692.851 54.944C692.126 54.24 691.763 53.1413 691.763 51.648V35.072H694.451V51.584C694.451 52.352 694.622 52.8853 694.963 53.184C695.304 53.4827 695.827 53.632 696.531 53.632H698.963V56H696.275ZM689.267 41.408V39.04H698.963V41.408H689.267ZM705.951 56C704.969 56 704.169 55.744 703.551 55.232C702.932 54.72 702.623 53.9093 702.623 52.8V33.28H705.311V52.576C705.311 52.9173 705.396 53.184 705.567 53.376C705.759 53.5467 706.025 53.632 706.367 53.632H707.839V56H705.951ZM717.59 56.384C715.99 56.384 714.604 56.0213 713.43 55.296C712.278 54.5707 711.382 53.5467 710.742 52.224C710.124 50.88 709.814 49.312 709.814 47.52C709.814 45.728 710.124 44.1707 710.742 42.848C711.382 41.5253 712.268 40.5013 713.398 39.776C714.55 39.0293 715.905 38.656 717.462 38.656C718.934 38.656 720.236 39.008 721.366 39.712C722.497 40.3947 723.372 41.3973 723.99 42.72C724.63 44.0427 724.95 45.6533 724.95 47.552V48.352H712.63C712.737 50.1653 713.217 51.5307 714.07 52.448C714.945 53.3653 716.118 53.824 717.59 53.824C718.7 53.824 719.606 53.568 720.31 53.056C721.036 52.5227 721.537 51.8293 721.814 50.976L724.694 51.2C724.246 52.7147 723.393 53.9627 722.134 54.944C720.897 55.904 719.382 56.384 717.59 56.384ZM712.63 45.984H722.006C721.878 44.3413 721.398 43.136 720.566 42.368C719.756 41.6 718.721 41.216 717.462 41.216C716.161 41.216 715.084 41.6213 714.23 42.432C713.398 43.2213 712.865 44.4053 712.63 45.984ZM728.591 56V39.04H731.055L731.151 43.328L730.767 43.2C730.959 42.2613 731.29 41.4613 731.759 40.8C732.25 40.1173 732.847 39.5947 733.551 39.232C734.255 38.848 735.034 38.656 735.887 38.656C737.359 38.656 738.554 39.0613 739.471 39.872C740.41 40.6827 740.997 41.8133 741.231 43.264L740.719 43.232C740.89 42.2507 741.199 41.4293 741.647 40.768C742.117 40.0853 742.714 39.5627 743.439 39.2C744.165 38.8373 744.997 38.656 745.935 38.656C747.151 38.656 748.175 38.912 749.007 39.424C749.839 39.9147 750.469 40.64 750.895 41.6C751.322 42.56 751.535 43.7227 751.535 45.088V56H748.847V45.664C748.847 44.128 748.549 42.976 747.951 42.208C747.354 41.4187 746.469 41.024 745.295 41.024C744.506 41.024 743.813 41.216 743.215 41.6C742.639 41.984 742.191 42.5387 741.871 43.264C741.551 43.968 741.391 44.832 741.391 45.856V56H738.703V45.856C738.703 44.3413 738.437 43.1573 737.903 42.304C737.37 41.4507 736.474 41.024 735.215 41.024C734.426 41.024 733.733 41.216 733.135 41.6C732.559 41.984 732.101 42.5387 731.759 43.264C731.439 43.9893 731.279 44.8533 731.279 45.856V56H728.591ZM762.903 56.384C761.303 56.384 759.916 56.0213 758.743 55.296C757.591 54.5707 756.695 53.5467 756.055 52.224C755.436 50.88 755.127 49.312 755.127 47.52C755.127 45.728 755.436 44.1707 756.055 42.848C756.695 41.5253 757.58 40.5013 758.711 39.776C759.863 39.0293 761.217 38.656 762.775 38.656C764.247 38.656 765.548 39.008 766.679 39.712C767.809 40.3947 768.684 41.3973 769.303 42.72C769.943 44.0427 770.263 45.6533 770.263 47.552V48.352H757.943C758.049 50.1653 758.529 51.5307 759.383 52.448C760.257 53.3653 761.431 53.824 762.903 53.824C764.012 53.824 764.919 53.568 765.623 53.056C766.348 52.5227 766.849 51.8293 767.127 50.976L770.007 51.2C769.559 52.7147 768.705 53.9627 767.447 54.944C766.209 55.904 764.695 56.384 762.903 56.384ZM757.943 45.984H767.319C767.191 44.3413 766.711 43.136 765.879 42.368C765.068 41.6 764.033 41.216 762.775 41.216C761.473 41.216 760.396 41.6213 759.543 42.432C758.711 43.2213 758.177 44.4053 757.943 45.984ZM773.904 56V39.04H776.368L776.464 43.36L776.144 43.072C776.357 42.0693 776.73 41.248 777.264 40.608C777.797 39.9467 778.437 39.456 779.184 39.136C779.952 38.816 780.773 38.656 781.648 38.656C782.949 38.656 784.016 38.944 784.848 39.52C785.701 40.096 786.33 40.8747 786.736 41.856C787.162 42.816 787.376 43.8933 787.376 45.088V56H784.688V45.856C784.688 44.8107 784.56 43.936 784.304 43.232C784.069 42.5067 783.685 41.9627 783.152 41.6C782.618 41.216 781.925 41.024 781.072 41.024C779.77 41.024 778.693 41.44 777.84 42.272C777.008 43.0827 776.592 44.2773 776.592 45.856V56H773.904ZM797.424 56C795.888 56 794.747 55.648 794 54.944C793.275 54.24 792.912 53.1413 792.912 51.648V35.072H795.6V51.584C795.6 52.352 795.771 52.8853 796.112 53.184C796.454 53.4827 796.976 53.632 797.68 53.632H800.112V56H797.424ZM790.416 41.408V39.04H800.112V41.408H790.416ZM812.132 56V33.28H814.884V56H812.132ZM820.685 56V39.04H823.149L823.245 43.36L822.925 43.072C823.138 42.0693 823.512 41.248 824.045 40.608C824.578 39.9467 825.218 39.456 825.965 39.136C826.733 38.816 827.554 38.656 828.429 38.656C829.73 38.656 830.797 38.944 831.629 39.52C832.482 40.096 833.112 40.8747 833.517 41.856C833.944 42.816 834.157 43.8933 834.157 45.088V56H831.469V45.856C831.469 44.8107 831.341 43.936 831.085 43.232C830.85 42.5067 830.466 41.9627 829.933 41.6C829.4 41.216 828.706 41.024 827.853 41.024C826.552 41.024 825.474 41.44 824.621 42.272C823.789 43.0827 823.373 44.2773 823.373 45.856V56H820.685ZM839.849 56V37.504C839.849 36.2453 840.212 35.232 840.937 34.464C841.662 33.6747 842.793 33.28 844.329 33.28H847.017V35.648H844.521C843.86 35.648 843.358 35.8293 843.017 36.192C842.697 36.5547 842.537 37.056 842.537 37.696V56H839.849ZM837.545 41.408V39.04H846.793V41.408H837.545ZM849.841 56V39.04H852.209L852.337 43.328L852.081 43.232C852.295 41.7813 852.753 40.7253 853.457 40.064C854.183 39.3813 855.143 39.04 856.337 39.04H858.001V41.6H856.369C855.516 41.6 854.801 41.76 854.225 42.08C853.671 42.3787 853.244 42.8373 852.945 43.456C852.668 44.0533 852.529 44.8213 852.529 45.76V56H849.841ZM865.261 56.384C863.512 56.384 862.114 55.9787 861.069 55.168C860.045 54.3573 859.533 53.2267 859.533 51.776C859.533 50.3253 859.96 49.184 860.813 48.352C861.666 47.52 863.021 46.9333 864.877 46.592L870.893 45.472C870.893 44.0427 870.552 42.976 869.869 42.272C869.208 41.568 868.205 41.216 866.861 41.216C865.688 41.216 864.76 41.4827 864.077 42.016C863.394 42.528 862.925 43.2747 862.669 44.256L859.821 44.032C860.141 42.432 860.909 41.1413 862.125 40.16C863.362 39.1573 864.941 38.656 866.861 38.656C869.037 38.656 870.701 39.2747 871.853 40.512C873.005 41.728 873.581 43.4133 873.581 45.568V52.576C873.581 52.96 873.645 53.2373 873.773 53.408C873.922 53.5573 874.157 53.632 874.477 53.632H875.149V56C875.064 56.0213 874.925 56.032 874.733 56.032C874.541 56.0533 874.338 56.064 874.125 56.064C873.357 56.064 872.728 55.9467 872.237 55.712C871.768 55.456 871.426 55.072 871.213 54.56C871 54.0267 870.893 53.3333 870.893 52.48L871.213 52.544C871.064 53.2693 870.701 53.9307 870.125 54.528C869.549 55.104 868.834 55.5627 867.981 55.904C867.128 56.224 866.221 56.384 865.261 56.384ZM865.517 54.016C866.648 54.016 867.608 53.8027 868.397 53.376C869.208 52.928 869.826 52.3307 870.253 51.584C870.68 50.816 870.893 49.9627 870.893 49.024V47.808L865.389 48.832C864.237 49.0453 863.437 49.376 862.989 49.824C862.562 50.2507 862.349 50.816 862.349 51.52C862.349 52.3093 862.626 52.928 863.181 53.376C863.757 53.8027 864.536 54.016 865.517 54.016ZM884.299 56.384C882.784 56.384 881.493 56.1387 880.427 55.648C879.381 55.1573 878.56 54.4853 877.963 53.632C877.387 52.7573 877.056 51.7653 876.971 50.656L879.786 50.464C879.957 51.488 880.395 52.3093 881.099 52.928C881.803 53.5253 882.869 53.824 884.299 53.824C885.451 53.824 886.368 53.6427 887.051 53.28C887.755 52.896 888.107 52.288 888.107 51.456C888.107 51.008 888 50.6347 887.787 50.336C887.573 50.0373 887.157 49.7813 886.539 49.568C885.92 49.3333 885.003 49.1093 883.786 48.896C882.165 48.5973 880.885 48.2347 879.947 47.808C879.029 47.36 878.368 46.816 877.963 46.176C877.579 45.5147 877.387 44.736 877.387 43.84C877.387 42.3253 877.941 41.088 879.051 40.128C880.16 39.1467 881.739 38.656 883.786 38.656C885.173 38.656 886.336 38.912 887.275 39.424C888.235 39.9147 888.981 40.576 889.515 41.408C890.069 42.2187 890.432 43.1147 890.603 44.096L887.787 44.288C887.659 43.6907 887.424 43.168 887.083 42.72C886.741 42.2507 886.293 41.888 885.739 41.632C885.184 41.3547 884.523 41.216 883.755 41.216C882.539 41.216 881.643 41.4507 881.067 41.92C880.491 42.3893 880.203 42.9867 880.203 43.712C880.203 44.2667 880.331 44.7253 880.587 45.088C880.864 45.4293 881.301 45.7173 881.899 45.952C882.496 46.1653 883.296 46.3573 884.299 46.528C886.027 46.8267 887.371 47.1893 888.331 47.616C889.291 48.0427 889.963 48.5653 890.347 49.184C890.731 49.8027 890.923 50.56 890.923 51.456C890.923 52.5013 890.624 53.3973 890.027 54.144C889.451 54.8693 888.661 55.424 887.659 55.808C886.677 56.192 885.557 56.384 884.299 56.384ZM900.143 56C898.607 56 897.466 55.648 896.719 54.944C895.994 54.24 895.631 53.1413 895.631 51.648V35.072H898.319V51.584C898.319 52.352 898.49 52.8853 898.831 53.184C899.172 53.4827 899.695 53.632 900.399 53.632H902.831V56H900.143ZM893.135 41.408V39.04H902.831V41.408H893.135ZM906.623 56V39.04H908.991L909.119 43.328L908.863 43.232C909.076 41.7813 909.535 40.7253 910.239 40.064C910.964 39.3813 911.924 39.04 913.119 39.04H914.783V41.6H913.151C912.297 41.6 911.583 41.76 911.007 42.08C910.452 42.3787 910.025 42.8373 909.727 43.456C909.449 44.0533 909.311 44.8213 909.311 45.76V56H906.623ZM923.691 56.384C922.005 56.384 920.651 55.8187 919.627 54.688C918.624 53.536 918.123 51.9573 918.123 49.952V39.04H920.811V49.216C920.811 50.8587 921.099 52.0747 921.675 52.864C922.272 53.632 923.179 54.016 924.395 54.016C925.739 54.016 926.795 53.5893 927.563 52.736C928.331 51.8613 928.715 50.6667 928.715 49.152V39.04H931.403V56H928.843V51.808L929.259 52.032C928.917 53.4187 928.267 54.496 927.307 55.264C926.347 56.0107 925.141 56.384 923.691 56.384ZM942.84 56.384C941.262 56.384 939.886 56.0213 938.712 55.296C937.56 54.5707 936.664 53.5467 936.024 52.224C935.384 50.88 935.064 49.312 935.064 47.52C935.064 45.728 935.384 44.1707 936.024 42.848C936.664 41.5253 937.56 40.5013 938.712 39.776C939.886 39.0293 941.262 38.656 942.84 38.656C944.142 38.656 945.294 38.8907 946.296 39.36C947.32 39.808 948.152 40.4693 948.792 41.344C949.432 42.2187 949.848 43.2853 950.04 44.544L947.224 44.736C947.032 43.6053 946.542 42.7413 945.752 42.144C944.963 41.5253 943.992 41.216 942.84 41.216C941.283 41.216 940.067 41.7813 939.192 42.912C938.318 44.0213 937.88 45.5573 937.88 47.52C937.88 49.4827 938.318 51.0293 939.192 52.16C940.067 53.2693 941.283 53.824 942.84 53.824C943.992 53.824 944.963 53.504 945.752 52.864C946.542 52.224 947.032 51.264 947.224 49.984L950.04 50.176C949.848 51.4347 949.432 52.5333 948.792 53.472C948.152 54.3893 947.32 55.104 946.296 55.616C945.294 56.128 944.142 56.384 942.84 56.384ZM958.924 56C957.388 56 956.247 55.648 955.5 54.944C954.775 54.24 954.412 53.1413 954.412 51.648V35.072H957.1V51.584C957.1 52.352 957.271 52.8853 957.612 53.184C957.954 53.4827 958.476 53.632 959.18 53.632H961.612V56H958.924ZM951.916 41.408V39.04H961.612V41.408H951.916ZM970.628 56.384C968.943 56.384 967.588 55.8187 966.564 54.688C965.561 53.536 965.06 51.9573 965.06 49.952V39.04H967.748V49.216C967.748 50.8587 968.036 52.0747 968.612 52.864C969.209 53.632 970.116 54.016 971.332 54.016C972.676 54.016 973.732 53.5893 974.5 52.736C975.268 51.8613 975.652 50.6667 975.652 49.152V39.04H978.34V56H975.78V51.808L976.196 52.032C975.855 53.4187 975.204 54.496 974.244 55.264C973.284 56.0107 972.079 56.384 970.628 56.384ZM983.466 56V39.04H985.834L985.962 43.328L985.706 43.232C985.92 41.7813 986.378 40.7253 987.082 40.064C987.808 39.3813 988.768 39.04 989.962 39.04H991.626V41.6H989.994C989.141 41.6 988.426 41.76 987.85 42.08C987.296 42.3787 986.869 42.8373 986.57 43.456C986.293 44.0533 986.154 44.8213 986.154 45.76V56H983.466ZM1000.93 56.384C999.334 56.384 997.947 56.0213 996.774 55.296C995.622 54.5707 994.726 53.5467 994.086 52.224C993.467 50.88 993.158 49.312 993.158 47.52C993.158 45.728 993.467 44.1707 994.086 42.848C994.726 41.5253 995.611 40.5013 996.742 39.776C997.894 39.0293 999.249 38.656 1000.81 38.656C1002.28 38.656 1003.58 39.008 1004.71 39.712C1005.84 40.3947 1006.72 41.3973 1007.33 42.72C1007.97 44.0427 1008.29 45.6533 1008.29 47.552V48.352H995.974C996.081 50.1653 996.561 51.5307 997.414 52.448C998.289 53.3653 999.462 53.824 1000.93 53.824C1002.04 53.824 1002.95 53.568 1003.65 53.056C1004.38 52.5227 1004.88 51.8293 1005.16 50.976L1008.04 51.2C1007.59 52.7147 1006.74 53.9627 1005.48 54.944C1004.24 55.904 1002.73 56.384 1000.93 56.384ZM995.974 45.984H1005.35C1005.22 44.3413 1004.74 43.136 1003.91 42.368C1003.1 41.6 1002.06 41.216 1000.81 41.216C999.505 41.216 998.427 41.6213 997.574 42.432C996.742 43.2213 996.209 44.4053 995.974 45.984ZM644.224 94V75.504C644.224 74.2453 644.587 73.232 645.312 72.464C646.037 71.6747 647.168 71.28 648.704 71.28H651.392V73.648H648.896C648.235 73.648 647.733 73.8293 647.392 74.192C647.072 74.5547 646.912 75.056 646.912 75.696V94H644.224ZM641.92 79.408V77.04H651.168V79.408H641.92ZM660.403 94.384C658.845 94.384 657.48 94.0213 656.307 93.296C655.133 92.5707 654.227 91.5467 653.587 90.224C652.947 88.88 652.627 87.312 652.627 85.52C652.627 83.7067 652.947 82.1387 653.587 80.816C654.227 79.4933 655.133 78.4693 656.307 77.744C657.48 77.0187 658.845 76.656 660.403 76.656C661.96 76.656 663.315 77.0187 664.467 77.744C665.64 78.4693 666.547 79.4933 667.187 80.816C667.827 82.1387 668.147 83.7067 668.147 85.52C668.147 87.312 667.827 88.88 667.187 90.224C666.547 91.5467 665.64 92.5707 664.467 93.296C663.315 94.0213 661.96 94.384 660.403 94.384ZM660.403 91.824C661.96 91.824 663.165 91.2693 664.019 90.16C664.893 89.0293 665.331 87.4827 665.331 85.52C665.331 83.5573 664.893 82.0213 664.019 80.912C663.165 79.7813 661.96 79.216 660.403 79.216C658.845 79.216 657.629 79.7813 656.755 80.912C655.88 82.0213 655.443 83.5573 655.443 85.52C655.443 87.4827 655.88 89.0293 656.755 90.16C657.629 91.2693 658.845 91.824 660.403 91.824ZM671.81 94V77.04H674.178L674.306 81.328L674.05 81.232C674.263 79.7813 674.722 78.7253 675.426 78.064C676.151 77.3813 677.111 77.04 678.306 77.04H679.97V79.6H678.338C677.485 79.6 676.77 79.76 676.194 80.08C675.639 80.3787 675.213 80.8373 674.914 81.456C674.637 82.0533 674.498 82.8213 674.498 83.76V94H671.81ZM692.319 94V71.28H699.359C702.858 71.28 705.546 72.272 707.423 74.256C709.322 76.2187 710.271 79.024 710.271 82.672C710.271 86.2987 709.343 89.0933 707.487 91.056C705.631 93.0187 702.986 94 699.551 94H692.319ZM695.071 91.312H699.359C702.026 91.312 704.031 90.5973 705.375 89.168C706.719 87.7173 707.391 85.552 707.391 82.672C707.391 79.7493 706.719 77.5733 705.375 76.144C704.031 74.6933 702.026 73.968 699.359 73.968H695.071V91.312ZM713.841 94V77.04H716.529V94H713.841ZM713.777 74.384V71.248H716.593V74.384H713.777ZM727.773 99.184C726.557 99.184 725.459 98.9813 724.477 98.576C723.496 98.1707 722.675 97.5947 722.013 96.848C721.352 96.1013 720.904 95.2373 720.669 94.256L723.485 94.064C723.741 94.8533 724.189 95.472 724.829 95.92C725.491 96.3893 726.472 96.624 727.773 96.624C729.309 96.624 730.483 96.3147 731.293 95.696C732.125 95.0773 732.541 94.1493 732.541 92.912V90.16C732.136 91.056 731.485 91.7707 730.589 92.304C729.693 92.8373 728.691 93.104 727.581 93.104C726.152 93.104 724.872 92.752 723.741 92.048C722.632 91.344 721.757 90.3733 721.117 89.136C720.499 87.8987 720.189 86.48 720.189 84.88C720.189 83.2587 720.499 81.84 721.117 80.624C721.736 79.3867 722.589 78.416 723.677 77.712C724.787 77.008 726.045 76.656 727.453 76.656C728.648 76.656 729.715 76.9333 730.653 77.488C731.613 78.0427 732.285 78.7893 732.669 79.728V77.04H735.229V92.848C735.229 94.1707 734.931 95.3013 734.333 96.24C733.736 97.2 732.883 97.9253 731.773 98.416C730.664 98.928 729.331 99.184 727.773 99.184ZM727.709 90.544C729.16 90.544 730.323 90.0427 731.197 89.04C732.072 88.016 732.52 86.6293 732.541 84.88C732.563 83.7067 732.371 82.704 731.965 81.872C731.581 81.0187 731.016 80.368 730.269 79.92C729.544 79.4507 728.691 79.216 727.709 79.216C726.216 79.216 725.053 79.728 724.221 80.752C723.411 81.7547 723.005 83.1307 723.005 84.88C723.005 86.6293 723.421 88.016 724.253 89.04C725.107 90.0427 726.259 90.544 727.709 90.544ZM739.873 94V77.04H742.561V94H739.873ZM739.809 74.384V71.248H742.625V74.384H739.809ZM752.612 94C751.076 94 749.934 93.648 749.188 92.944C748.462 92.24 748.1 91.1413 748.1 89.648V73.072H750.788V89.584C750.788 90.352 750.958 90.8853 751.3 91.184C751.641 91.4827 752.164 91.632 752.868 91.632H755.3V94H752.612ZM745.604 79.408V77.04H755.3V79.408H745.604ZM763.199 94.384C761.449 94.384 760.052 93.9787 759.007 93.168C757.983 92.3573 757.471 91.2267 757.471 89.776C757.471 88.3253 757.897 87.184 758.751 86.352C759.604 85.52 760.959 84.9333 762.815 84.592L768.831 83.472C768.831 82.0427 768.489 80.976 767.807 80.272C767.145 79.568 766.143 79.216 764.799 79.216C763.625 79.216 762.697 79.4827 762.015 80.016C761.332 80.528 760.863 81.2747 760.607 82.256L757.759 82.032C758.079 80.432 758.847 79.1413 760.062 78.16C761.3 77.1573 762.879 76.656 764.799 76.656C766.975 76.656 768.639 77.2747 769.791 78.512C770.943 79.728 771.519 81.4133 771.519 83.568V90.576C771.519 90.96 771.583 91.2373 771.711 91.408C771.86 91.5573 772.095 91.632 772.415 91.632H773.087V94C773.001 94.0213 772.863 94.032 772.671 94.032C772.479 94.0533 772.276 94.064 772.062 94.064C771.295 94.064 770.665 93.9467 770.175 93.712C769.705 93.456 769.364 93.072 769.151 92.56C768.937 92.0267 768.831 91.3333 768.831 90.48L769.151 90.544C769.001 91.2693 768.639 91.9307 768.063 92.528C767.487 93.104 766.772 93.5627 765.919 93.904C765.065 94.224 764.159 94.384 763.199 94.384ZM763.455 92.016C764.585 92.016 765.545 91.8027 766.335 91.376C767.145 90.928 767.764 90.3307 768.191 89.584C768.617 88.816 768.831 87.9627 768.831 87.024V85.808L763.327 86.832C762.175 87.0453 761.375 87.376 760.927 87.824C760.5 88.2507 760.286 88.816 760.286 89.52C760.286 90.3093 760.564 90.928 761.119 91.376C761.695 91.8027 762.473 92.016 763.455 92.016ZM779.263 94C778.282 94 777.482 93.744 776.863 93.232C776.244 92.72 775.935 91.9093 775.935 90.8V71.28H778.623V90.576C778.623 90.9173 778.708 91.184 778.879 91.376C779.071 91.5467 779.338 91.632 779.679 91.632H781.151V94H779.263ZM792.85 94V71.28H799.89C803.389 71.28 806.077 72.272 807.954 74.256C809.853 76.2187 810.802 79.024 810.802 82.672C810.802 86.2987 809.874 89.0933 808.018 91.056C806.162 93.0187 803.517 94 800.082 94H792.85ZM795.602 91.312H799.89C802.557 91.312 804.562 90.5973 805.906 89.168C807.25 87.7173 807.922 85.552 807.922 82.672C807.922 79.7493 807.25 77.5733 805.906 76.144C804.562 74.6933 802.557 73.968 799.89 73.968H795.602V91.312ZM821.872 94.384C820.314 94.384 818.949 94.0213 817.776 93.296C816.602 92.5707 815.696 91.5467 815.056 90.224C814.416 88.88 814.096 87.312 814.096 85.52C814.096 83.7067 814.416 82.1387 815.056 80.816C815.696 79.4933 816.602 78.4693 817.776 77.744C818.949 77.0187 820.314 76.656 821.872 76.656C823.429 76.656 824.784 77.0187 825.936 77.744C827.109 78.4693 828.016 79.4933 828.656 80.816C829.296 82.1387 829.616 83.7067 829.616 85.52C829.616 87.312 829.296 88.88 828.656 90.224C828.016 91.5467 827.109 92.5707 825.936 93.296C824.784 94.0213 823.429 94.384 821.872 94.384ZM821.872 91.824C823.429 91.824 824.634 91.2693 825.488 90.16C826.362 89.0293 826.8 87.4827 826.8 85.52C826.8 83.5573 826.362 82.0213 825.488 80.912C824.634 79.7813 823.429 79.216 821.872 79.216C820.314 79.216 819.098 79.7813 818.224 80.912C817.349 82.0213 816.911 83.5573 816.911 85.52C816.911 87.4827 817.349 89.0293 818.224 90.16C819.098 91.2693 820.314 91.824 821.872 91.824ZM836.763 94C835.782 94 834.982 93.744 834.363 93.232C833.744 92.72 833.435 91.9093 833.435 90.8V71.28H836.123V90.576C836.123 90.9173 836.208 91.184 836.379 91.376C836.571 91.5467 836.838 91.632 837.179 91.632H838.651V94H836.763ZM844.982 94C844 94 843.2 93.744 842.582 93.232C841.963 92.72 841.654 91.9093 841.654 90.8V71.28H844.342V90.576C844.342 90.9173 844.427 91.184 844.598 91.376C844.79 91.5467 845.056 91.632 845.398 91.632H846.87V94H844.982ZM854.761 94.384C853.012 94.384 851.614 93.9787 850.569 93.168C849.545 92.3573 849.033 91.2267 849.033 89.776C849.033 88.3253 849.46 87.184 850.313 86.352C851.166 85.52 852.521 84.9333 854.377 84.592L860.393 83.472C860.393 82.0427 860.052 80.976 859.369 80.272C858.708 79.568 857.705 79.216 856.361 79.216C855.188 79.216 854.26 79.4827 853.577 80.016C852.894 80.528 852.425 81.2747 852.169 82.256L849.321 82.032C849.641 80.432 850.409 79.1413 851.625 78.16C852.862 77.1573 854.441 76.656 856.361 76.656C858.537 76.656 860.201 77.2747 861.353 78.512C862.505 79.728 863.081 81.4133 863.081 83.568V90.576C863.081 90.96 863.145 91.2373 863.273 91.408C863.422 91.5573 863.657 91.632 863.977 91.632H864.649V94C864.564 94.0213 864.425 94.032 864.233 94.032C864.041 94.0533 863.838 94.064 863.625 94.064C862.857 94.064 862.228 93.9467 861.737 93.712C861.268 93.456 860.926 93.072 860.713 92.56C860.5 92.0267 860.393 91.3333 860.393 90.48L860.713 90.544C860.564 91.2693 860.201 91.9307 859.625 92.528C859.049 93.104 858.334 93.5627 857.481 93.904C856.628 94.224 855.721 94.384 854.761 94.384ZM855.017 92.016C856.148 92.016 857.108 91.8027 857.897 91.376C858.708 90.928 859.326 90.3307 859.753 89.584C860.18 88.816 860.393 87.9627 860.393 87.024V85.808L854.889 86.832C853.737 87.0453 852.937 87.376 852.489 87.824C852.062 88.2507 851.849 88.816 851.849 89.52C851.849 90.3093 852.126 90.928 852.681 91.376C853.257 91.8027 854.036 92.016 855.017 92.016ZM867.685 94V77.04H870.053L870.181 81.328L869.925 81.232C870.138 79.7813 870.597 78.7253 871.301 78.064C872.026 77.3813 872.986 77.04 874.181 77.04H875.845V79.6H874.213C873.36 79.6 872.645 79.76 872.069 80.08C871.514 80.3787 871.088 80.8373 870.789 81.456C870.512 82.0533 870.373 82.8213 870.373 83.76V94H867.685ZM884.705 94.384C883.19 94.384 881.899 94.1387 880.833 93.648C879.787 93.1573 878.966 92.4853 878.369 91.632C877.793 90.7573 877.462 89.7653 877.377 88.656L880.193 88.464C880.363 89.488 880.801 90.3093 881.505 90.928C882.209 91.5253 883.275 91.824 884.705 91.824C885.857 91.824 886.774 91.6427 887.457 91.28C888.161 90.896 888.513 90.288 888.513 89.456C888.513 89.008 888.406 88.6347 888.193 88.336C887.979 88.0373 887.563 87.7813 886.945 87.568C886.326 87.3333 885.409 87.1093 884.193 86.896C882.571 86.5973 881.291 86.2347 880.353 85.808C879.435 85.36 878.774 84.816 878.369 84.176C877.985 83.5147 877.793 82.736 877.793 81.84C877.793 80.3253 878.347 79.088 879.457 78.128C880.566 77.1467 882.145 76.656 884.193 76.656C885.579 76.656 886.742 76.912 887.681 77.424C888.641 77.9147 889.387 78.576 889.921 79.408C890.475 80.2187 890.838 81.1147 891.009 82.096L888.193 82.288C888.065 81.6907 887.83 81.168 887.489 80.72C887.147 80.2507 886.699 79.888 886.145 79.632C885.59 79.3547 884.929 79.216 884.161 79.216C882.945 79.216 882.049 79.4507 881.473 79.92C880.897 80.3893 880.609 80.9867 880.609 81.712C880.609 82.2667 880.737 82.7253 880.993 83.088C881.27 83.4293 881.707 83.7173 882.305 83.952C882.902 84.1653 883.702 84.3573 884.705 84.528C886.433 84.8267 887.777 85.1893 888.737 85.616C889.697 86.0427 890.369 86.5653 890.753 87.184C891.137 87.8027 891.329 88.56 891.329 89.456C891.329 90.5013 891.03 91.3973 890.433 92.144C889.857 92.8693 889.067 93.424 888.065 93.808C887.083 94.192 885.963 94.384 884.705 94.384Z" fill="#041460"/>
<defs>
<clipPath id="clip0_5123_519">
<rect width="542" height="128" fill="white"/>
</clipPath>
</defs>
</svg>
