<svg width="250" height="59" viewBox="0 0 250 59" fill="none" xmlns="http://www.w3.org/2000/svg">
<g clip-path="url(#clip0_5073_508)">
<path d="M29.5201 36.4694C33.3718 36.4694 36.4942 33.3491 36.4942 29.5C36.4942 25.6509 33.3718 22.5306 29.5201 22.5306C25.6683 22.5306 22.5459 25.6509 22.5459 29.5C22.5459 33.3491 25.6683 36.4694 29.5201 36.4694Z" fill="white"/>
<path d="M57.8229 40.7653L60.9594 36.4694H94.7048C95.2399 34.2384 95.535 31.8969 95.535 29.5C95.535 13.2013 82.3247 0 66.0148 0C59.1328 0 52.786 2.36 47.7675 6.32406C42.7491 2.37844 36.4207 0 29.5203 0C13.2103 0 0 13.2013 0 29.5C0 31.8969 0.295203 34.2384 0.830258 36.4694H20.6458C19.1328 34.5519 18.2288 32.1366 18.2288 29.5C18.2288 23.2681 23.2841 18.2347 29.5018 18.2347H74.1882L71.0517 22.5491H38.3579C39.8708 24.4666 40.7749 26.8819 40.7749 29.5184C40.7749 35.7503 35.7196 40.7838 29.5018 40.7838C29.4834 40.7838 29.4649 40.7838 29.4465 40.7838H2.23247C6.66052 51.4775 17.214 59.0184 29.5203 59.0184C36.4022 59.0184 42.7491 56.6584 47.7675 52.6944C52.786 56.64 59.1144 59.0184 66.0148 59.0184C78.321 59.0184 88.8745 51.4959 93.3026 40.7838H57.8229V40.7653Z" fill="white"/>
<path d="M118.819 19.636C121.347 19.636 123.856 20.5026 125.664 23.0838V20.06H129.336V38.9585H125.664V35.9347C123.856 38.4975 121.347 39.3826 118.819 39.3826C113.136 39.3826 109.446 34.9207 109.446 29.5185C109.446 24.1163 113.155 19.6544 118.819 19.6544V19.636ZM119.28 22.881C115.35 22.881 113.118 25.9047 113.118 29.5C113.118 33.0954 115.35 36.1191 119.28 36.1191C123.21 36.1191 125.719 33.3166 125.756 29.5C125.719 25.6835 123.118 22.881 119.28 22.881Z" fill="white"/>
<path d="M139.815 24.3191C140.461 21.3322 142.546 19.636 144.889 19.636C145.572 19.636 146.107 19.8204 146.623 20.06V23.6554C146.014 23.3235 145.295 23.1576 144.612 23.1576C143.358 23.1576 139.815 23.766 139.815 31.8047V38.9401H136.144V20.0416H139.815V24.3191Z" fill="white"/>
<path d="M158.044 19.636C160.571 19.636 163.08 20.5026 164.889 23.0838V20.06H168.56V38.9585H164.889V35.9347C163.08 38.4975 160.571 39.3826 158.044 39.3826C152.379 39.3826 148.671 34.9207 148.671 29.5185C148.671 24.1163 152.379 19.6544 158.044 19.6544V19.636ZM158.505 22.881C154.575 22.881 152.342 25.9047 152.342 29.5C152.342 33.0954 154.575 36.1191 158.505 36.1191C162.435 36.1191 164.926 33.3166 164.981 29.5C164.944 25.6835 162.324 22.881 158.505 22.881Z" fill="white"/>
<path d="M183.985 19.636C185.682 19.636 188.228 20.06 190.756 21.9407L189.022 24.4297C187.011 22.9179 184.63 22.881 184.151 22.881C180.073 22.881 177.047 25.6097 177.047 29.5C177.047 33.3904 180.073 36.1191 184.151 36.1191C184.649 36.1191 187.029 36.0822 189.022 34.5704L190.756 37.0594C188.228 38.9585 185.682 39.3641 183.985 39.3641C177.287 39.3641 173.357 35.0866 173.357 29.7213C173.357 24.356 177.103 19.636 183.985 19.636Z" fill="white"/>
<path d="M203.284 19.636C208.763 19.636 213.228 24.0979 213.228 29.5C213.228 34.9022 208.763 39.3641 203.284 39.3641C197.804 39.3641 193.376 34.976 193.376 29.5C193.376 24.0241 197.841 19.636 203.284 19.636ZM203.284 36.1007C206.771 36.1007 209.557 33.1507 209.557 29.5185C209.557 25.8863 206.752 22.8625 203.284 22.8625C199.815 22.8625 197.048 25.8494 197.048 29.5185C197.048 33.1875 199.852 36.1007 203.284 36.1007Z" fill="white"/>
<path d="M221.365 24.3191C222.011 21.3322 224.096 19.636 226.439 19.636C227.121 19.636 227.656 19.8204 228.173 20.06V23.6554C227.564 23.3235 226.845 23.1576 226.162 23.1576C224.907 23.1576 221.365 23.766 221.365 31.8047V38.9401H217.693V20.0416H221.365V24.3191Z" fill="white"/>
<path d="M249.114 35.8426C246.697 38.5713 243.635 39.3641 240.83 39.3641C234.244 39.3641 230.166 34.9391 230.166 29.5738C230.166 24.2085 234.483 19.636 240.332 19.636C245.332 19.636 249.982 22.8441 249.982 29.8504H233.838C233.727 33.5194 236.679 36.1191 240.867 36.1191C243.137 36.1191 245.184 35.3632 247.066 33.7407L249.114 35.861V35.8426ZM234.188 26.9926H246.218C245.203 23.5447 242.509 22.8257 240.424 22.8257C238.192 22.8257 235.424 23.6922 234.188 26.9926Z" fill="white"/>
</g>
<defs>
<clipPath id="clip0_5073_508">
<rect width="250" height="59" fill="white"/>
</clipPath>
</defs>
</svg>
