<svg width="250" height="155" viewBox="0 0 250 155" fill="none" xmlns="http://www.w3.org/2000/svg">
<path d="M77.2493 95.4342C87.3287 95.4342 95.4996 87.2689 95.4996 77.1965C95.4996 67.1241 87.3287 58.9587 77.2493 58.9587C67.17 58.9587 58.999 67.1241 58.999 77.1965C58.999 87.2689 67.17 95.4342 77.2493 95.4342Z" fill="#0030B6"/>
<path d="M151.313 106.676L159.521 95.4345H247.827C249.228 89.5965 250 83.469 250 77.1968C250 34.5456 215.431 0 172.75 0C154.741 0 138.132 6.17574 125 16.5491C111.868 6.22399 95.3071 0 77.2499 0C34.5693 0 0 34.5456 0 77.1968C0 83.469 0.772499 89.5965 2.17265 95.4345H54.0267C50.0676 90.4168 47.7018 84.0963 47.7018 77.1968C47.7018 60.889 60.9309 47.7173 77.2016 47.7173H194.139L185.931 59.0073H100.377C104.336 64.0251 106.701 70.3456 106.701 77.245C106.701 93.5529 93.4724 106.725 77.2016 106.725C77.1533 106.725 77.1051 106.725 77.0568 106.725H5.84202C17.4295 134.708 45.0464 154.442 77.2499 154.442C95.2588 154.442 111.868 148.266 125 137.893C138.132 148.218 154.693 154.442 172.75 154.442C204.954 154.442 232.571 134.757 244.158 106.725H151.313V106.676Z" fill="#0030B6"/>
</svg>
