<svg width="250" height="250" viewBox="0 0 250 250" fill="none" xmlns="http://www.w3.org/2000/svg">
<path d="M125 0C182.426 0 211.14 0.000225067 229.559 17.1104C230.709 18.1794 231.821 19.2906 232.89 20.4414C250 38.8601 250 67.5736 250 125C250 182.426 250 211.14 232.89 229.559C231.821 230.709 230.709 231.821 229.559 232.89C211.14 250 182.426 250 125 250C67.5735 250 38.8601 250 20.4414 232.89C19.2906 231.821 18.1794 230.709 17.1104 229.559C0.000225067 211.14 0 182.426 0 125C0 67.5736 0.000237191 38.8601 17.1104 20.4414C18.1794 19.2906 19.2906 18.1794 20.4414 17.1104C38.8601 0.000225067 67.5735 0 125 0ZM163.628 62.5C149.043 62.5001 135.635 67.5098 125 75.8838C114.365 67.5099 100.957 62.5 86.3721 62.5C51.8556 62.5002 23.8721 90.4836 23.8721 125C23.8721 130.083 24.4922 135.024 25.6396 139.756H67.6123C64.4142 135.693 62.5 130.571 62.5 125C62.5001 111.817 73.1887 101.128 86.3721 101.128H180.972L174.346 110.249H105.137C108.335 114.307 110.249 119.429 110.249 125C110.249 138.184 99.5605 148.872 86.377 148.872H28.6035C37.9834 171.543 60.3126 187.5 86.3721 187.5C100.957 187.5 114.365 182.49 125 174.116C135.635 182.49 149.043 187.5 163.628 187.5C189.688 187.5 212.017 171.543 221.396 148.872H146.289L152.91 139.756H224.36C225.508 135.024 226.128 130.083 226.128 125C226.128 90.4835 198.144 62.5 163.628 62.5ZM86.3721 110.244C78.2228 110.244 71.6163 116.851 71.6162 125C71.6162 133.149 78.2228 139.756 86.3721 139.756C94.5215 139.756 101.128 133.149 101.128 125C101.128 116.851 94.5215 110.244 86.3721 110.244Z" fill="#0030B6"/>
</svg>
